<svg width="150" height="150" viewBox="0 0 150 150" fill="none" xmlns="http://www.w3.org/2000/svg">
<rect width="150" height="150" rx="25" fill="url(#paint0_radial_1_2)"/>
<path d="M54.3125 40H98.6875C101.041 40 103.299 40.9087 104.963 42.5262C106.627 44.1437 107.562 46.3375 107.562 48.625V100.375C107.562 102.662 106.627 104.856 104.963 106.474C103.299 108.091 101.041 109 98.6875 109H54.3125C51.9587 109 49.7013 108.091 48.0369 106.474C46.3725 104.856 45.4375 102.662 45.4375 100.375V96.0625H49.875V100.375C49.875 101.519 50.3425 102.616 51.1747 103.424C52.0069 104.233 53.1356 104.688 54.3125 104.688H98.6875C99.8644 104.688 100.993 104.233 101.825 103.424C102.657 102.616 103.125 101.519 103.125 100.375V48.625C103.125 47.4813 102.657 46.3844 101.825 45.5756C100.993 44.7669 99.8644 44.3125 98.6875 44.3125H54.3125C53.1356 44.3125 52.0069 44.7669 51.1747 45.5756C50.3425 46.3844 49.875 47.4813 49.875 48.625V52.9375H45.4375V48.625C45.4375 46.3375 46.3725 44.1437 48.0369 42.5262C49.7013 40.9087 51.9587 40 54.3125 40V40Z" fill="white"/>
<path d="M45.4375 61.5625V59.4062C45.4375 58.8344 45.6713 58.2859 46.0874 57.8816C46.5035 57.4772 47.0678 57.25 47.6562 57.25C48.2447 57.25 48.809 57.4772 49.2251 57.8816C49.6412 58.2859 49.875 58.8344 49.875 59.4062V61.5625H52.0938C52.6822 61.5625 53.2465 61.7897 53.6626 62.1941C54.0787 62.5984 54.3125 63.1469 54.3125 63.7188C54.3125 64.2906 54.0787 64.8391 53.6626 65.2434C53.2465 65.6478 52.6822 65.875 52.0938 65.875H43.2188C42.6303 65.875 42.066 65.6478 41.6499 65.2434C41.2338 64.8391 41 64.2906 41 63.7188C41 63.1469 41.2338 62.5984 41.6499 62.1941C42.066 61.7897 42.6303 61.5625 43.2188 61.5625H45.4375ZM45.4375 74.5V72.3438C45.4375 71.7719 45.6713 71.2234 46.0874 70.8191C46.5035 70.4147 47.0678 70.1875 47.6562 70.1875C48.2447 70.1875 48.809 70.4147 49.2251 70.8191C49.6412 71.2234 49.875 71.7719 49.875 72.3438V74.5H52.0938C52.6822 74.5 53.2465 74.7272 53.6626 75.1315C54.0787 75.5359 54.3125 76.0844 54.3125 76.6562C54.3125 77.2281 54.0787 77.7766 53.6626 78.181C53.2465 78.5853 52.6822 78.8125 52.0938 78.8125H43.2188C42.6303 78.8125 42.066 78.5853 41.6499 78.181C41.2338 77.7766 41 77.2281 41 76.6562C41 76.0844 41.2338 75.5359 41.6499 75.1315C42.066 74.7272 42.6303 74.5 43.2188 74.5H45.4375ZM45.4375 87.4375V85.2812C45.4375 84.7094 45.6713 84.1609 46.0874 83.7565C46.5035 83.3522 47.0678 83.125 47.6562 83.125C48.2447 83.125 48.809 83.3522 49.2251 83.7565C49.6412 84.1609 49.875 84.7094 49.875 85.2812V87.4375H52.0938C52.6822 87.4375 53.2465 87.6647 53.6626 88.069C54.0787 88.4734 54.3125 89.0219 54.3125 89.5938C54.3125 90.1656 54.0787 90.7141 53.6626 91.1185C53.2465 91.5228 52.6822 91.75 52.0938 91.75H43.2188C42.6303 91.75 42.066 91.5228 41.6499 91.1185C41.2338 90.7141 41 90.1656 41 89.5938C41 89.0219 41.2338 88.4734 41.6499 88.069C42.066 87.6647 42.6303 87.4375 43.2188 87.4375H45.4375Z" fill="white"/>
<path d="M75.312 75.098H71.242C71.242 78.9953 71.242 82.5967 71.242 85.902C71.2913 89.158 71.3407 92.3647 71.39 95.522H75.904C80.64 95.522 84.1673 94.6587 86.486 92.932C88.8047 91.2053 89.964 88.714 89.964 85.458C89.964 82.0047 88.8047 79.4147 86.486 77.688C84.1673 75.9613 80.4427 75.098 75.312 75.098ZM76.496 52.898H71.39C71.3407 56.0553 71.2913 59.262 71.242 62.518C71.242 65.7247 71.242 68.7833 71.242 71.694H75.09C79.5793 71.694 82.8353 70.9293 84.858 69.4C86.8807 67.8707 87.892 65.4287 87.892 62.074C87.892 58.7193 86.93 56.3513 85.006 54.97C83.1313 53.5887 80.2947 52.898 76.496 52.898ZM57.256 52.528V49.494H78.716C83.8467 49.494 87.818 50.6287 90.63 52.898C93.442 55.1673 94.848 58.0533 94.848 61.556C94.848 64.1707 93.96 66.5633 92.184 68.734C90.408 70.9047 87.4727 72.4093 83.378 73.248C88.3113 73.9387 91.8633 75.394 94.034 77.614C96.254 79.834 97.364 82.4487 97.364 85.458C97.364 87.678 96.698 89.824 95.366 91.896C94.0833 93.968 91.9867 95.67 89.076 97.002C86.1653 98.334 82.342 99 77.606 99H57.256V95.966L64.064 95.152C64.1627 92.044 64.212 88.8867 64.212 85.68C64.212 82.4733 64.212 79.2667 64.212 76.06V72.434C64.212 69.2273 64.212 66.0453 64.212 62.888C64.212 59.6813 64.1627 56.4993 64.064 53.342L57.256 52.528Z" fill="white"/>
<defs>
<radialGradient id="paint0_radial_1_2" cx="0" cy="0" r="1" gradientUnits="userSpaceOnUse" gradientTransform="translate(75 75) rotate(90) scale(75)">
<stop stop-color="#2D3330"/>
<stop offset="0.864411" stop-color="#121010"/>
</radialGradient>
</defs>
</svg>
