<svg width="150" height="150" viewBox="0 0 150 150" fill="none" xmlns="http://www.w3.org/2000/svg">
<rect width="150" height="150" rx="25" fill="#407BFF"/>
<path d="M75 31.25C79.144 31.25 83.1183 32.8962 86.0485 35.8265C88.9788 38.7567 90.625 42.731 90.625 46.875V50H59.375V46.875C59.375 42.731 61.0212 38.7567 63.9515 35.8265C66.8817 32.8962 70.856 31.25 75 31.25ZM96.875 50V46.875C96.875 41.0734 94.5703 35.5094 90.468 31.407C86.3656 27.3047 80.8016 25 75 25C69.1984 25 63.6344 27.3047 59.532 31.407C55.4297 35.5094 53.125 41.0734 53.125 46.875V50H31.25V112.5C31.25 115.815 32.567 118.995 34.9112 121.339C37.2554 123.683 40.4348 125 43.75 125H106.25C109.565 125 112.745 123.683 115.089 121.339C117.433 118.995 118.75 115.815 118.75 112.5V50H96.875ZM37.5 56.25H112.5V112.5C112.5 114.158 111.842 115.747 110.669 116.919C109.497 118.092 107.908 118.75 106.25 118.75H43.75C42.0924 118.75 40.5027 118.092 39.3306 116.919C38.1585 115.747 37.5 114.158 37.5 112.5V56.25Z" fill="#203E80"/>
<g clip-path="url(#clip0_0_3)">
<path d="M75.5812 65.4781C75.2082 65.3286 74.7918 65.3286 74.4188 65.4781L55.7687 72.9375L63.2812 75.9406L82.5125 68.25L75.5812 65.4781ZM86.7188 69.9344L67.4875 77.625L75 80.6281L94.2313 72.9375L86.7188 69.9344ZM96.875 75.2469L76.5625 83.3719V108.128L96.875 100.003V75.25V75.2469ZM73.4375 108.131V83.3687L53.125 75.2469V100.006L73.4375 108.131ZM73.2594 62.575C74.3768 62.1281 75.6232 62.1281 76.7406 62.575L99.0187 71.4875C99.3084 71.6036 99.5567 71.8037 99.7315 72.0622C99.9064 72.3206 99.9999 72.6255 100 72.9375V100.006C99.9996 100.631 99.8121 101.241 99.4618 101.758C99.1114 102.274 98.6143 102.675 98.0344 102.906L75.5812 111.887C75.2082 112.037 74.7918 112.037 74.4188 111.887L51.9688 102.906C51.3883 102.675 50.8904 102.275 50.5395 101.758C50.1886 101.241 50.0006 100.631 50 100.006V72.9375C50.0001 72.6255 50.0936 72.3206 50.2685 72.0622C50.4433 71.8037 50.6916 71.6036 50.9813 71.4875L73.2594 62.575Z" fill="#101F40"/>
</g>
<path d="M42.175 42.2116C42.1477 42.5581 42.1916 42.8712 42.3067 43.1506C42.4182 43.4258 42.5933 43.665 42.832 43.8679C43.071 44.067 43.366 44.2274 43.7168 44.3492C44.0677 44.4709 44.4671 44.5494 44.9149 44.5847C45.5185 44.6323 46.0403 44.599 46.4804 44.4848C46.9168 44.3664 47.2604 44.1584 47.5111 43.8608C47.758 43.5628 47.901 43.1646 47.9403 42.6662C47.9677 42.3196 47.9561 41.97 47.9055 41.6172C47.8553 41.2606 47.7742 40.8722 47.6624 40.4519L49.1811 40.5717C49.3071 40.9617 49.3887 41.3424 49.4261 41.7136C49.4673 42.0852 49.47 42.4988 49.434 42.9544C49.3646 43.8345 49.1264 44.5445 48.7194 45.0845C48.3089 45.6203 47.7657 45.9987 47.09 46.2197C46.4104 46.4404 45.6325 46.5162 44.7563 46.4471C44.1099 46.3961 43.5249 46.2619 43.0013 46.0442C42.4777 45.8266 42.0326 45.5329 41.666 45.1631C41.2995 44.7933 41.0287 44.3507 40.8538 43.8354C40.679 43.32 40.617 42.7392 40.668 42.0927C40.7015 41.6683 40.7895 41.2481 40.932 40.8322C41.0709 40.4122 41.2492 40.0148 41.4668 39.6401L42.8927 40.3403C42.7157 40.6477 42.5579 40.9585 42.4195 41.2728C42.2811 41.5871 42.1996 41.9 42.175 42.2116Z" fill="#101F40"/>
<path d="M54.2784 30.1496L52.23 29.5597L50.5288 32.1787L51.9005 33.8103L50.8345 35.4515L45.268 28.2305L46.4777 26.3682L55.3444 28.5084L54.2784 30.1496ZM50.7163 29.0935L48.7073 28.5291C48.5746 28.4895 48.4034 28.4412 48.1936 28.3841C47.9827 28.3216 47.769 28.2597 47.5527 28.1984C47.3352 28.1316 47.1486 28.071 46.9931 28.0165C47.1061 28.1365 47.2434 28.2909 47.4049 28.4797C47.5653 28.663 47.7169 28.8384 47.8597 29.0057C48.0026 29.173 48.1042 29.2926 48.1647 29.3645L49.5002 30.9656L50.7163 29.0935Z" fill="#101F40"/>
<path d="M62.807 23.0013L61.2269 23.8972L57.7473 17.7603L55.7238 18.9076L54.9782 17.5926L60.6054 14.4021L61.351 15.7171L59.3274 16.8644L62.807 23.0013Z" fill="#101F40"/>
<path d="M75.4262 20.0898L74.7304 18.075L71.6095 18.19L71.0639 20.2506L69.1082 20.3227L71.8128 11.6156L74.032 11.5338L77.3819 20.0177L75.4262 20.0898ZM74.241 16.5686L73.547 14.6006C73.503 14.4693 73.4441 14.3015 73.3701 14.097C73.2999 13.8885 73.2276 13.6782 73.1533 13.4659C73.0828 13.2496 73.0251 13.0622 72.9802 12.9035C72.947 13.065 72.8997 13.2661 72.8382 13.5068C72.7805 13.7435 72.7243 13.9684 72.6696 14.1815C72.6149 14.3946 72.5756 14.5465 72.5515 14.6373L72.0101 16.6508L74.241 16.5686Z" fill="#101F40"/>
<path d="M83.1924 21.5402L86.8575 13.7974L88.4992 14.5746L85.4759 20.9615L88.6165 22.4481L87.9747 23.8039L83.1924 21.5402Z" fill="#101F40"/>
<path d="M100.738 31.1007C100.205 31.4904 99.6711 31.7792 99.136 31.9672C98.604 32.1529 98.0812 32.2255 97.5676 32.1849C97.0563 32.1474 96.5645 31.9843 96.0922 31.6958C95.623 31.4049 95.1821 30.9772 94.7694 30.4128C94.3567 29.8483 94.083 29.2985 93.9481 28.7632C93.8163 28.2256 93.809 27.7059 93.926 27.2042C94.0454 26.7056 94.2758 26.2299 94.6173 25.777C94.9588 25.3241 95.3975 24.9016 95.9336 24.5097C96.6494 23.9863 97.3575 23.6477 98.0578 23.4937C98.7637 23.3406 99.4419 23.4012 100.093 23.6755C100.743 23.9499 101.344 24.4639 101.895 25.2175C102.444 25.968 102.748 26.6917 102.807 27.3885C102.869 28.0886 102.719 28.7501 102.356 29.373C101.996 29.9992 101.457 30.5751 100.738 31.1007ZM97.0481 26.0539C96.5656 26.4066 96.1932 26.7708 95.9308 27.1466C95.6738 27.5232 95.5453 27.9099 95.5451 28.3068C95.5481 28.7014 95.6995 29.1037 95.9992 29.5136C96.3036 29.9298 96.6433 30.1992 97.0184 30.3218C97.3966 30.442 97.8018 30.4337 98.234 30.2967C98.6716 30.1606 99.1317 29.9162 99.6141 29.5635C100.339 29.0332 100.811 28.4803 101.029 27.9048C101.247 27.3293 101.129 26.7309 100.675 26.1097C100.373 25.6967 100.031 25.4284 99.6508 25.305C99.2757 25.1825 98.8681 25.1877 98.4282 25.3206C97.9937 25.4544 97.5337 25.6988 97.0481 26.0539Z" fill="#101F40"/>
<path d="M104.533 42.3898L104.863 45.7722L100.443 46.2029C100.251 45.7702 100.087 45.3171 99.951 44.8437C99.8185 44.37 99.7225 43.8279 99.6631 43.2175C99.5805 42.37 99.6776 41.6344 99.9544 41.0109C100.231 40.3874 100.681 39.8902 101.304 39.5195C101.928 39.1487 102.716 38.9169 103.668 38.8241C104.562 38.737 105.353 38.8327 106.039 39.1112C106.726 39.3936 107.28 39.8478 107.703 40.4739C108.125 41.1039 108.383 41.8971 108.476 42.8535C108.52 43.3045 108.515 43.7544 108.46 44.2032C108.406 44.652 108.318 45.0628 108.198 45.4356L106.693 44.9758C106.8 44.7025 106.881 44.3942 106.938 44.0512C106.995 43.7081 107.006 43.3539 106.97 42.9884C106.919 42.4635 106.754 42.0185 106.475 41.6532C106.197 41.2917 105.829 41.0253 105.373 40.8539C104.921 40.686 104.401 40.6307 103.814 40.6879C103.258 40.742 102.772 40.8659 102.355 41.0596C101.942 41.2529 101.629 41.5247 101.416 41.8752C101.207 42.2252 101.128 42.6627 101.179 43.1876C101.204 43.4442 101.237 43.6588 101.277 43.8315C101.322 44.0077 101.365 44.1722 101.408 44.3251L103.186 44.1518L103.029 42.5364L104.533 42.3898Z" fill="#101F40"/>
<defs>
<clipPath id="clip0_0_3">
<rect width="50" height="50" fill="white" transform="translate(50 62)"/>
</clipPath>
</defs>
</svg>
