<svg width="150" height="150" viewBox="0 0 150 150" fill="none" xmlns="http://www.w3.org/2000/svg">
<rect x="150" y="150" width="150" height="150" rx="25" transform="rotate(-180 150 150)" fill="url(#paint0_angular_0_3)"/>
<rect x="150" y="150" width="150" height="150" rx="25" transform="rotate(-180 150 150)" fill="url(#paint1_angular_0_3)"/>
<path d="M10.4394 86.0039C10.3809 86.0234 10.3418 86.0039 10.3223 85.9453C10.3027 85.8867 10.293 85.8281 10.293 85.7695C10.3125 85.7109 10.3418 85.6621 10.3809 85.623C10.4394 85.584 10.5078 85.584 10.5859 85.623C10.332 85.3105 10.166 85.0273 10.0879 84.7734C10.0293 84.5195 9.90234 84.207 9.70702 83.8359C9.76562 83.7773 9.80468 83.6992 9.82421 83.6016C9.84374 83.4844 9.87304 83.377 9.9121 83.2793C9.93163 83.1816 9.96093 83.1133 9.99999 83.0742C10.0586 83.0156 10.1269 83.0254 10.2051 83.1035C10.166 82.8887 10.166 82.7129 10.2051 82.5762C10.2441 82.4395 10.2832 82.3125 10.3223 82.1953C10.3809 82.0781 10.4199 81.9609 10.4394 81.8437C10.459 81.7266 10.4297 81.5898 10.3516 81.4336C10.7226 80.9258 10.9668 80.3789 11.084 79.793C11.2012 79.1875 11.2695 78.6406 11.2891 78.1523C11.4648 77.9766 11.6113 77.7422 11.7285 77.4492C11.8652 77.1562 11.9629 76.8535 12.0215 76.541C12.0801 76.2285 12.1094 75.9258 12.1094 75.6328C12.1094 75.3203 12.0703 75.0762 11.9922 74.9004C12.0117 74.8223 12.0508 74.7832 12.1094 74.7832C12.1875 74.7637 12.2754 74.7637 12.373 74.7832C12.5098 74.002 12.5976 73.1328 12.6367 72.1758C12.6953 71.2187 12.793 70.3008 12.9297 69.4219C13.0859 68.5234 13.3301 67.7422 13.6621 67.0781C13.9941 66.3945 14.5215 65.9551 15.2441 65.7598C15.3809 66.248 15.5566 66.6777 15.7715 67.0488C16.0059 67.4199 16.25 67.7812 16.5039 68.1328C16.7773 68.4844 17.0508 68.8359 17.3242 69.1875C17.5976 69.5391 17.8516 69.9297 18.0859 70.3594C18.0664 70.8086 18.0176 71.3262 17.9394 71.9121C17.8809 72.498 17.793 73.0937 17.6758 73.6992C17.5781 74.3047 17.4707 74.8906 17.3535 75.457C17.2559 76.0234 17.1582 76.502 17.0605 76.8926C17.0801 76.9902 17.1484 77.0586 17.2656 77.0977C17.3828 77.1172 17.4023 77.2246 17.3242 77.4199C17.8906 77.2832 18.4766 77.1562 19.082 77.0391C19.707 76.9023 20.3125 76.7754 20.8984 76.6582C21.5039 76.5215 22.0898 76.3652 22.6562 76.1895C23.2422 76.0137 23.7891 75.7988 24.2969 75.5449C24.4141 74.6074 24.5605 73.6797 24.7363 72.7617C24.9121 71.8437 24.9316 70.916 24.7949 69.9785C24.9121 69.8809 25.0098 69.7637 25.0879 69.627C25.166 69.4902 25.2832 69.4023 25.4394 69.3633C25.3223 68.9141 25.2734 68.4453 25.293 67.957C25.3125 67.4492 25.3906 66.9805 25.5273 66.5508C25.6836 66.1211 25.9082 65.75 26.2012 65.4375C26.4941 65.1055 26.8555 64.8906 27.2851 64.793C27.5391 65.1641 27.7637 65.5645 27.959 65.9941C28.1543 66.4238 28.3496 66.8633 28.5449 67.3125C28.7402 67.7422 28.9453 68.1523 29.1601 68.543C29.3945 68.9336 29.6875 69.2656 30.0391 69.5391C30.0976 70.2227 30.1465 70.9258 30.1855 71.6484C30.2246 72.3516 30.2539 73.084 30.2734 73.8457C30.0976 74.7246 29.8926 75.584 29.6582 76.4238C29.4434 77.2441 29.2871 78.123 29.1894 79.0605C29.0332 79.2363 28.9062 79.4512 28.8086 79.7051C28.7109 79.9395 28.6133 80.1836 28.5156 80.4375C28.4375 80.6719 28.3398 80.9062 28.2226 81.1406C28.1055 81.375 27.959 81.5703 27.7832 81.7266C27.8613 82 27.8711 82.2637 27.8125 82.5176C27.7734 82.752 27.8418 83.0352 28.0176 83.3672C28.0566 83.9727 27.9785 84.4805 27.7832 84.8906C27.6074 85.2812 27.3535 85.623 27.0215 85.916C26.709 86.1895 26.3379 86.4141 25.9082 86.5898C25.498 86.7461 25.0879 86.8926 24.6777 87.0293C24.4824 86.9121 24.2969 86.7949 24.1211 86.6777C23.9648 86.541 23.7695 86.4434 23.5351 86.3848L23.6816 86.1211C23.291 85.7305 22.9492 85.3203 22.6562 84.8906C22.3828 84.4414 22.2559 83.9336 22.2754 83.3672C22.2754 83.3477 22.2949 83.2207 22.334 82.9863C22.373 82.7324 22.4121 82.4687 22.4512 82.1953C22.5098 81.9219 22.5586 81.668 22.5976 81.4336C22.6562 81.1797 22.6855 81.043 22.6855 81.0234C22.1387 81.082 21.5723 81.209 20.9863 81.4043C20.4004 81.5996 19.8242 81.8242 19.2578 82.0781C18.7109 82.3125 18.1934 82.5664 17.7051 82.8398C17.2363 83.0937 16.8555 83.3086 16.5625 83.4844C16.5625 83.543 16.5137 83.709 16.416 83.9824C16.3184 84.2559 16.2012 84.5488 16.0644 84.8613C15.9277 85.1543 15.7715 85.418 15.5957 85.6523C15.4394 85.8867 15.2734 85.9941 15.0976 85.9746C15.1367 86.0723 15.1758 86.1504 15.2148 86.209C15.2539 86.248 15.2539 86.3359 15.2148 86.4727C14.8828 86.5703 14.5801 86.6973 14.3066 86.8535C14.0527 87.0098 13.7891 87.1367 13.5156 87.2344C13.2422 87.3516 12.9394 87.4004 12.6074 87.3809C12.2949 87.3809 11.9141 87.2637 11.4648 87.0293C11.4648 86.8926 11.4062 86.7754 11.2891 86.6777C11.1719 86.5605 11.0449 86.4629 10.9082 86.3848C10.791 86.3066 10.6836 86.2383 10.5859 86.1797C10.4883 86.1211 10.4394 86.0625 10.4394 86.0039ZM31.4453 81.6387C31.4648 81.5605 31.4746 81.502 31.4746 81.4629C31.4941 81.4238 31.4648 81.375 31.3867 81.3164C31.3476 81.1797 31.3769 81.0918 31.4746 81.0527C31.5723 81.0137 31.6699 80.9746 31.7676 80.9355C31.8652 79.7637 32.0605 78.6992 32.3535 77.7422C32.666 76.7656 32.998 75.8184 33.3496 74.9004C33.7207 73.9824 34.082 73.0645 34.4336 72.1465C34.8047 71.209 35.1074 70.1934 35.3418 69.0996C35.5957 68.8457 35.8008 68.543 35.957 68.1914C36.1328 67.8398 36.2988 67.4883 36.4551 67.1367C36.6309 66.7656 36.8262 66.4141 37.041 66.082C37.2754 65.75 37.5879 65.4766 37.9785 65.2617C38.1543 65.2812 38.3105 65.3203 38.4473 65.3789C38.6035 65.418 38.75 65.4668 38.8867 65.5254C39.0234 65.584 39.1699 65.6328 39.3262 65.6719C39.4824 65.7109 39.6484 65.7305 39.8242 65.7305C39.9023 65.8281 39.9707 65.9453 40.0293 66.082C40.0879 66.1992 40.166 66.3066 40.2637 66.4043L40.791 66.3164C41.0449 66.5312 41.2695 66.8047 41.4648 67.1367C41.6601 67.4492 41.7969 67.7812 41.875 68.1328C41.9531 68.4648 41.9434 68.7969 41.8457 69.1289C41.748 69.4414 41.5234 69.6855 41.1719 69.8613C41.1914 69.9785 41.1914 70.0664 41.1719 70.125C41.1523 70.1836 41.123 70.2422 41.084 70.3008C41.0644 70.3398 41.0547 70.3887 41.0547 70.4473C41.0547 70.4863 41.0937 70.5449 41.1719 70.623C40.957 70.7988 40.7617 71.0234 40.5859 71.2969C40.4101 71.5508 40.2637 71.8242 40.1465 72.1172C40.0293 72.4102 39.9316 72.7031 39.8535 72.9961C39.7949 73.2891 39.7559 73.5625 39.7363 73.8164C40.3027 73.2305 40.9668 72.6836 41.7285 72.1758C42.4902 71.668 43.1543 71.1895 43.7207 70.7402C44.1699 70.4277 44.5605 70.1348 44.8926 69.8613C45.2441 69.5684 45.5957 69.3047 45.9473 69.0703C46.2988 68.8164 46.6601 68.582 47.0312 68.3672C47.4219 68.1328 47.8125 67.8789 48.2031 67.6055C48.3984 67.5273 48.5449 67.5078 48.6426 67.5469C48.7598 67.5859 48.8672 67.6348 48.9648 67.6934C48.9844 67.5566 48.9551 67.4785 48.8769 67.459C48.7988 67.4199 48.7695 67.3223 48.7891 67.166C49.1211 67.0684 49.4141 66.9512 49.668 66.8145C49.9414 66.6777 50.2246 66.5508 50.5176 66.4336C50.7129 66.6484 50.9082 66.8828 51.1035 67.1367C51.2988 67.3711 51.5625 67.498 51.8945 67.5176C52.0117 67.7715 52.1484 67.9668 52.3047 68.1035C52.4805 68.2207 52.6465 68.3379 52.8027 68.4551C52.9785 68.5723 53.125 68.7187 53.2422 68.8945C53.3594 69.0508 53.4277 69.3047 53.4473 69.6562C53.3691 69.8125 53.2715 69.9883 53.1543 70.1836C53.0566 70.3594 52.9687 70.584 52.8906 70.8574C52.4219 71.2871 51.9434 71.668 51.4551 72C50.9863 72.3125 50.498 72.6152 49.9902 72.9082C49.5019 73.2012 48.9941 73.5039 48.4668 73.8164C47.959 74.1289 47.4414 74.4902 46.9141 74.9004C46.7969 75.0762 46.6504 75.2324 46.4746 75.3691C46.2988 75.5059 46.1133 75.6426 45.918 75.7793C45.7422 75.8965 45.5664 76.0234 45.3906 76.1602C45.2344 76.2969 45.1074 76.4629 45.0098 76.6582C44.9316 76.6582 44.8633 76.668 44.8047 76.6875C44.7461 76.6875 44.6777 76.6973 44.5996 76.7168C44.5215 76.873 44.4043 77 44.248 77.0977C44.1113 77.1953 44.0137 77.3223 43.9551 77.4785C44.3066 78.2402 44.7656 78.8164 45.332 79.207C45.8984 79.5977 46.5332 79.8809 47.2363 80.0566C47.9394 80.2324 48.7012 80.3301 49.5215 80.3496C50.3418 80.3691 51.1914 80.3789 52.0703 80.3789C52.168 80.3594 52.207 80.3105 52.1875 80.2324C52.1875 80.1348 52.2461 80.0957 52.3633 80.1152C52.6562 80.2129 52.9004 80.3301 53.0957 80.4668C53.291 80.6035 53.4766 80.75 53.6523 80.9062C53.8281 81.0625 53.9941 81.2285 54.1504 81.4043C54.3262 81.5605 54.5215 81.7266 54.7363 81.9023C54.6973 82.8203 54.4238 83.5723 53.916 84.1582C53.4277 84.7246 52.7734 85.1836 51.9531 85.5352C50.8203 85.5742 49.834 85.5449 48.9941 85.4473C48.1543 85.3496 47.3242 85.1348 46.5039 84.8027C46.4453 84.7832 46.3867 84.7246 46.3281 84.627C46.2891 84.5293 46.25 84.4609 46.2109 84.4219C46.0547 84.3242 45.8789 84.2852 45.6836 84.3047C45.4883 84.3242 45.3223 84.3047 45.1855 84.2461C45.0098 84.168 44.7168 83.9922 44.3066 83.7187C43.916 83.4453 43.5547 83.1914 43.2226 82.957C42.8125 82.625 42.4121 82.3027 42.0215 81.9902C41.6504 81.6582 41.3184 81.2969 41.0254 80.9062C40.9668 80.8086 40.8789 80.7598 40.7617 80.7598C40.6641 80.7598 40.5664 80.7305 40.4687 80.6719C39.7851 81.1016 39.209 81.6387 38.7402 82.2832C38.291 82.9082 37.8516 83.5527 37.4219 84.2168C36.9922 84.8613 36.5332 85.4766 36.0449 86.0625C35.5762 86.6289 34.9805 87.0684 34.2578 87.3809C34.043 87.3809 33.8574 87.3418 33.7012 87.2637C33.5449 87.2051 33.3984 87.1172 33.2617 87C33.125 86.9023 32.9883 86.8047 32.8516 86.707C32.7148 86.6094 32.5586 86.541 32.3828 86.502C32.3828 86.2285 32.3242 85.9746 32.207 85.7402C32.1094 85.4863 32.0019 85.2617 31.8848 85.0664C31.7871 84.8516 31.709 84.6465 31.6504 84.4512C31.6113 84.2559 31.6699 84.0605 31.8262 83.8652C31.6113 83.6895 31.4062 83.543 31.2109 83.4258C31.3476 83.2891 31.4062 83.1621 31.3867 83.0449C31.3867 82.9277 31.3574 82.8105 31.2988 82.6934C31.2402 82.5762 31.1914 82.459 31.1523 82.3418C31.1328 82.2051 31.1719 82.0586 31.2695 81.9023C31.3476 81.8828 31.3769 81.8437 31.3574 81.7852C31.3574 81.7266 31.3867 81.6777 31.4453 81.6387ZM55.8203 85.916C55.7422 85.8379 55.6738 85.75 55.6152 85.6523C55.5566 85.5352 55.5078 85.3887 55.4687 85.2129C55.1953 84.8809 54.9805 84.5 54.8242 84.0703C54.668 83.6406 54.5605 83.2012 54.5019 82.752C54.4434 82.2832 54.4336 81.8145 54.4726 81.3457C54.5117 80.877 54.5801 80.4375 54.6777 80.0273C54.7363 79.832 54.7851 79.627 54.8242 79.4121C54.9219 79.041 55.0195 78.6797 55.1172 78.3281C55.2148 77.957 55.3613 77.6543 55.5566 77.4199C55.4785 77.2051 55.4883 76.9707 55.5859 76.7168C55.6836 76.4629 55.7812 76.2285 55.8789 76.0137C55.918 75.9551 55.9473 75.9062 55.9668 75.8672C55.9863 75.8086 56.0058 75.7598 56.0254 75.7207C56.2598 75.0371 56.4844 74.3828 56.6992 73.7578C56.9336 73.1133 57.1582 72.498 57.373 71.9121C57.7637 70.8379 58.1348 69.7832 58.4863 68.748C58.8574 67.7129 59.1894 66.6094 59.4824 65.4375C59.6387 65.3203 59.7754 65.2422 59.8926 65.2031C59.9316 65.1836 59.9805 65.1641 60.0391 65.1445C60.0976 65.125 60.166 65.1152 60.2441 65.1152C60.6543 65.3301 61.1328 65.5352 61.6797 65.7305C62.2461 65.9062 62.7246 65.9941 63.1152 65.9941L63.6133 66.4336C63.8672 66.7266 64.082 67.0391 64.2578 67.3711C64.4531 67.6836 64.5117 68.0937 64.4336 68.6016C64.3164 68.7773 64.2187 68.8848 64.1406 68.9238C64.0234 69.373 63.8965 69.7734 63.7598 70.125C63.623 70.457 63.4863 70.7793 63.3496 71.0918C63.1933 71.4434 63.0469 71.7949 62.9101 72.1465C62.7734 72.498 62.6562 72.9277 62.5586 73.4355C62.4414 73.5723 62.3633 73.6895 62.3242 73.7871C62.3047 73.8848 62.2754 73.9824 62.2363 74.0801C62.1973 74.1973 62.1484 74.3242 62.0898 74.4609C62.0312 74.5781 61.9433 74.6855 61.8262 74.7832C61.748 75.3887 61.6308 75.8867 61.4746 76.2773C61.3183 76.6484 61.1621 77.0195 61.0058 77.3906C60.7324 78.0742 60.4785 78.7578 60.2441 79.4414C60.0098 80.1055 59.873 80.8672 59.834 81.7266C60.0683 81.668 60.2832 81.6387 60.4785 81.6387C60.7324 81.6387 60.9766 81.6777 61.2109 81.7559C61.9141 81.4043 62.6758 81.1895 63.4961 81.1113C64.3359 81.0332 65.166 80.9844 65.9863 80.9648C66.6699 80.9648 67.3047 80.9355 67.8906 80.877C68.0859 81.0137 68.2129 81.0918 68.2715 81.1113C68.3301 81.1113 68.4277 81.1113 68.5644 81.1113C68.623 81.1113 68.6816 81.1113 68.7402 81.1113C68.7988 81.1113 68.8769 81.1211 68.9746 81.1406C69.248 81.4141 69.5117 81.6094 69.7656 81.7266C70.0195 81.8242 70.293 81.9219 70.5859 82.0195C70.8398 82.1172 71.084 82.2246 71.3183 82.3418C71.5723 82.4395 71.8164 82.5762 72.0508 82.752L72.3144 84.2461C72.4707 84.4609 72.5391 84.6074 72.5195 84.6855C72.5195 84.8418 72.4805 84.9785 72.4023 85.0957L72.4609 85.4766C72.0898 85.5547 71.8457 85.6426 71.7285 85.7402C71.6113 85.8184 71.4844 85.9258 71.3476 86.0625C71.1328 86.082 70.9277 86.0918 70.7324 86.0918C70.3418 86.0918 69.9414 86.1504 69.5312 86.2676C68.9453 86.0527 68.3008 85.9453 67.5976 85.9453C67.3242 85.9453 67.041 85.9551 66.748 85.9746C66.4746 85.9941 66.2012 86.0234 65.9277 86.0625C65.6348 86.1016 65.3418 86.1406 65.0488 86.1797C64.7558 86.1992 64.4629 86.209 64.1699 86.209C63.9355 86.248 63.7695 86.2773 63.6719 86.2969C63.5742 86.3164 63.4766 86.3457 63.3789 86.3848C62.7148 86.5996 61.9922 86.8145 61.2109 87.0293C60.4492 87.2441 59.6777 87.3516 58.8965 87.3516C57.7441 87.3516 56.8164 87.0586 56.1133 86.4727C56.0351 86.2969 55.9766 86.1797 55.9375 86.1211C55.8984 86.0625 55.8594 85.9941 55.8203 85.916ZM89.4824 70.5059C89.5019 70.6426 89.5019 70.75 89.4824 70.8281C89.4824 70.8867 89.4726 70.9453 89.4531 71.0039C89.4531 71.0625 89.4531 71.1309 89.4531 71.209C89.4531 71.2676 89.4726 71.3652 89.5117 71.502C89.1016 72.166 88.623 72.625 88.0762 72.8789C87.5488 73.1133 86.9726 73.2891 86.3476 73.4062C85.7226 73.5039 85.0781 73.6113 84.4141 73.7285C83.7695 73.8457 83.125 74.0996 82.4805 74.4902C82.2266 74.3926 81.9922 74.3926 81.7773 74.4902C81.582 74.5879 81.2891 74.6172 80.8984 74.5781C80.7812 74.6953 80.6348 74.7832 80.459 74.8418C80.2832 74.8809 80.1074 74.9297 79.9316 74.9883C80.0098 75.1641 80.0391 75.3496 80.0195 75.5449C80.0195 75.7207 80.0488 75.8672 80.1074 75.9844C80.791 76.043 81.543 76.0332 82.3633 75.9551C83.2031 75.877 84.0234 75.8281 84.8242 75.8086C84.8437 75.9062 84.834 75.9746 84.7949 76.0137C84.7558 76.0332 84.7461 76.082 84.7656 76.1602C84.9023 76.2578 85.0391 76.3848 85.1758 76.541C85.3125 76.6777 85.4492 76.8145 85.5859 76.9512C85.7226 77.0879 85.8594 77.2051 85.9961 77.3027C86.1523 77.3809 86.3281 77.4102 86.5234 77.3906C86.6016 77.5469 86.6504 77.7227 86.6699 77.918C86.709 78.0937 86.6894 78.2793 86.6113 78.4746C86.2988 78.6895 85.9863 78.9141 85.6738 79.1484C85.3613 79.3633 85.0293 79.5586 84.6777 79.7344C84.3457 79.9102 83.9844 80.0566 83.5937 80.1738C83.2226 80.2715 82.8027 80.3105 82.334 80.291C82.2363 80.291 82.1582 80.291 82.0996 80.291C82.0605 80.291 82.0019 80.2617 81.9238 80.2031C81.7676 80.3008 81.543 80.3301 81.25 80.291C80.9766 80.252 80.7617 80.2812 80.6055 80.3789C80.3906 80.2812 80.1269 80.2422 79.8144 80.2617C79.5215 80.2617 79.2578 80.2227 79.0234 80.1445C78.7109 80.5547 78.4277 80.9941 78.1738 81.4629C77.9199 81.9316 77.6953 82.4297 77.5 82.957C78.1641 83.0547 78.7109 83.0937 79.1406 83.0742C79.5898 83.0547 80.0098 83.0254 80.4004 82.9863C80.791 82.9277 81.1914 82.8789 81.6016 82.8398C82.0117 82.7812 82.5293 82.7617 83.1543 82.7812C83.5449 82.5664 84.0039 82.4297 84.5312 82.3711C85.0781 82.293 85.5762 82.1758 86.0254 82.0195C86.1816 82.0781 86.3183 82.1855 86.4355 82.3418C86.5527 82.4785 86.6601 82.6152 86.7578 82.752C86.875 82.8691 86.9922 82.9766 87.1094 83.0742C87.2266 83.1719 87.373 83.2109 87.5488 83.1914C87.6269 83.2695 87.6758 83.3672 87.6953 83.4844C87.7344 83.582 87.7637 83.6797 87.7832 83.7773C87.8027 83.875 87.832 83.9629 87.8711 84.041C87.9297 84.0996 88.0176 84.1191 88.1348 84.0996C87.8418 84.7441 87.5 85.2422 87.1094 85.5937C86.7383 85.9258 86.3086 86.1797 85.8203 86.3555C85.332 86.5312 84.7851 86.668 84.1797 86.7656C83.5937 86.8633 82.9394 86.9805 82.2168 87.1172C82.041 87.1562 81.8945 87.1465 81.7773 87.0879C81.6601 87.0488 81.5234 87.0293 81.3672 87.0293C80.918 87.127 80.3808 87.2148 79.7558 87.293C79.1308 87.3711 78.4961 87.4004 77.8516 87.3809C77.207 87.3613 76.5918 87.2734 76.0058 87.1172C75.4199 86.9805 74.9414 86.7266 74.5703 86.3555C74.4141 86.2187 74.3066 86.0625 74.248 85.8867C74.209 85.6914 74.082 85.5449 73.8672 85.4473C73.8476 85.1934 73.8086 84.9102 73.75 84.5977C73.6914 84.2852 73.6328 83.9629 73.5742 83.6309C73.5156 83.2793 73.4668 82.9375 73.4277 82.6055C73.4082 82.2734 73.4277 81.9707 73.4863 81.6973C73.5449 81.4043 73.6621 81.1406 73.8379 80.9062C74.0332 80.6719 74.1016 80.418 74.043 80.1445C74.1406 80.125 74.1992 80.0762 74.2187 79.998C74.2383 79.9004 74.3164 79.8613 74.4531 79.8809C74.5703 79.5293 74.6973 79.1973 74.834 78.8848C74.9707 78.5723 75.1074 78.2695 75.2441 77.9766C75.4004 77.6836 75.5469 77.3906 75.6836 77.0977C75.8398 76.7852 75.9863 76.4434 76.123 76.0723C75.8496 75.8184 75.6445 75.5449 75.5078 75.252C75.3906 74.9395 75.3027 74.6367 75.2441 74.3437C75.1855 74.0312 75.1367 73.7187 75.0976 73.4062C75.0586 73.0742 74.9902 72.7422 74.8926 72.4102C75.0879 72.1172 75.3223 71.8828 75.5957 71.707C75.8887 71.5117 76.2012 71.3555 76.5332 71.2383C76.8652 71.1211 77.2266 71.0234 77.6172 70.9453C78.0078 70.8672 78.418 70.7793 78.8476 70.6816C79.6289 70.4277 80.3223 70.2324 80.9277 70.0957C81.5527 69.959 82.1582 69.8516 82.7441 69.7734C83.3496 69.6758 83.9746 69.5879 84.6191 69.5098C85.2637 69.4316 85.9961 69.3145 86.8164 69.1582C86.9922 69.334 87.1582 69.4219 87.3144 69.4219C87.3926 69.2461 87.4805 69.1973 87.5781 69.2754C87.6953 69.334 87.7441 69.2754 87.7246 69.0996C87.9199 69.4316 88.1641 69.7148 88.457 69.9492C88.7695 70.1641 89.1113 70.3496 89.4824 70.5059ZM104.277 84.5391C104.16 84.8711 103.984 85.2129 103.75 85.5645C103.535 85.8965 103.271 86.1992 102.959 86.4727C102.666 86.7266 102.334 86.9414 101.963 87.1172C101.592 87.293 101.201 87.3906 100.791 87.4102C100.537 87.3516 100.361 87.2832 100.264 87.2051C100.186 87.1465 100.098 87.0879 100 87.0293C99.9414 86.9902 99.8828 86.9609 99.8242 86.9414C99.7851 86.9023 99.7461 86.873 99.707 86.8535L99.3555 86.707L99.4726 86.3262C99.5117 86.1699 99.5019 86.0527 99.4433 85.9746C99.3848 85.877 99.2676 85.75 99.0918 85.5937C99.0332 85.5352 98.9746 85.4766 98.916 85.418C98.8574 85.3594 98.8086 85.3008 98.7695 85.2422L98.2715 84.6855L99.0625 84.4805C99.5508 84.3437 99.873 84.168 100.029 83.9531C100.205 83.7383 100.273 83.377 100.234 82.8691C99.8437 82.791 99.5117 82.7812 99.2383 82.8398C98.9844 82.8984 98.7207 82.9668 98.4473 83.0449C98.0957 83.1426 97.7344 83.2305 97.3633 83.3086C97.0117 83.3672 96.6211 83.3965 96.1914 83.3965C96.0351 83.3965 95.8887 83.3965 95.7519 83.3965C95.6152 83.377 95.4687 83.3574 95.3125 83.3379L95.0195 83.2793C94.9805 83.0645 94.9414 82.9473 94.9023 82.9277C94.8633 82.8887 94.8242 82.8496 94.7851 82.8105C94.6875 82.7129 94.5801 82.5859 94.4629 82.4297C94.3652 82.2539 94.3457 82.0391 94.4043 81.7852C94.3066 81.6094 94.248 81.4336 94.2285 81.2578C94.1113 81.4922 94.0234 81.7363 93.9648 81.9902L93.8476 82.2832L93.5547 82.3418C93.5156 82.3613 93.4863 82.4102 93.4668 82.4883C93.4473 82.5469 93.4375 82.5957 93.4375 82.6348L93.291 83.1328C93.2519 83.1719 93.2129 83.2109 93.1738 83.25C93.1348 83.2695 93.0957 83.2988 93.0566 83.3379C93.0176 83.5137 92.9687 83.6895 92.9101 83.8652C92.8516 84.041 92.793 84.207 92.7344 84.3633C92.6367 84.6172 92.5488 84.8711 92.4707 85.125C92.4121 85.3594 92.3926 85.5937 92.4121 85.8281L92.2949 86.1504C92.1973 86.2676 92.0898 86.3652 91.9726 86.4434C91.8555 86.502 91.7383 86.5605 91.6211 86.6191C91.582 86.6582 91.5234 86.6973 91.4453 86.7363C91.3867 86.7559 91.3379 86.7754 91.2988 86.7949L91.2109 87.1172L90.8594 87.1758C90.6445 87.2148 90.4883 87.2441 90.3906 87.2637C90.3125 87.2832 90.2148 87.293 90.0976 87.293L89.8047 87.2637C89.5898 87.0879 89.4238 86.9512 89.3066 86.8535C89.1894 86.7363 89.0527 86.6289 88.8965 86.5312C88.7207 86.2969 88.623 86.1211 88.6035 86.0039C88.584 85.8867 88.5644 85.7793 88.5449 85.6816C88.5058 85.5645 88.4863 85.4668 88.4863 85.3887C88.4668 85.3105 88.4375 85.252 88.3984 85.2129L88.0176 84.8613L88.3398 84.5977L88.3691 84.0996C88.7598 83.1035 89.1699 82.1465 89.5996 81.2285C90.0488 80.3105 90.5078 79.373 90.9766 78.416C91.1328 78.1035 91.2793 77.791 91.416 77.4785C91.5723 77.166 91.7285 76.8535 91.8848 76.541C91.8652 76.4824 91.8555 76.4141 91.8555 76.3359C91.8555 76.2578 91.875 76.1699 91.9141 76.0723C92.1289 75.7402 92.3047 75.4473 92.4414 75.1934C92.5781 74.9199 92.7148 74.6465 92.8516 74.373C93.0078 74.041 93.1641 73.7187 93.3203 73.4062C93.4961 73.0937 93.7109 72.7715 93.9648 72.4395L94.4336 72.2344C94.4922 72.2148 94.5605 72.1953 94.6387 72.1758C94.7168 72.1367 94.8047 72.1172 94.9023 72.1172L95.3418 72.1758C95.8887 71.9219 96.3672 71.5703 96.7773 71.1211C97.1875 70.6523 97.6074 70.0957 98.0371 69.4512L98.3301 69.041L98.7109 69.2754C98.8086 69.334 98.9453 69.3926 99.1211 69.4512C99.2969 69.4902 99.4824 69.5391 99.6777 69.5977C100.029 69.6758 100.361 69.7637 100.674 69.8613C100.986 69.959 101.24 70.1055 101.436 70.3008C101.553 70.6133 101.621 70.8477 101.641 71.0039C101.66 71.1602 101.689 71.3164 101.729 71.4727C101.787 71.8047 101.836 72.1367 101.875 72.4687C101.934 72.8008 101.973 73.1719 101.992 73.582C102.09 73.9141 102.168 74.2461 102.227 74.5781C102.305 74.8906 102.373 75.2129 102.432 75.5449C102.529 76.0137 102.627 76.4727 102.725 76.9219C102.822 77.3516 102.949 77.7617 103.105 78.1523C103.262 78.1523 103.359 78.1621 103.398 78.1816C103.496 78.1426 103.594 78.1133 103.691 78.0937C103.809 78.0742 103.936 78.0547 104.072 78.0352L104.395 78.0059L104.512 78.2988C104.531 78.3965 104.629 78.4941 104.805 78.5918C105.059 78.6113 105.244 78.6699 105.361 78.7676C105.479 78.8457 105.586 78.9336 105.684 79.0312C105.762 79.1094 105.84 79.168 105.918 79.207L106.357 79.3828L106.123 79.8223C105.928 80.1738 105.645 80.5156 105.273 80.8477C104.922 81.1602 104.521 81.4238 104.072 81.6387C104.092 81.7559 104.102 81.873 104.102 81.9902C104.121 82.0879 104.15 82.1953 104.189 82.3125C104.248 82.6445 104.297 82.9863 104.336 83.3379C104.375 83.6895 104.375 84.0508 104.336 84.4219L104.277 84.5391ZM95.8105 79.4707C96.3965 79.4316 96.9238 79.3926 97.3926 79.3535C97.8808 79.2949 98.418 79.207 99.0039 79.0898C98.8672 78.5039 98.7207 77.8984 98.5644 77.2734C98.4082 76.6289 98.2422 75.9941 98.0664 75.3691L97.8906 75.6621C97.5 76.0723 97.1191 76.5312 96.748 77.0391C96.3965 77.5469 96.0937 78.0254 95.8398 78.4746C95.7226 78.6504 95.6055 78.8262 95.4883 79.002C95.3711 79.1777 95.2637 79.3535 95.166 79.5293C95.2832 79.5098 95.3906 79.5 95.4883 79.5C95.6055 79.5 95.7129 79.4902 95.8105 79.4707ZM110.928 83.9531C110.713 84.7344 110.518 85.3301 110.342 85.7402C110.186 86.1309 109.941 86.541 109.609 86.9707C109.355 86.9316 109.18 86.9609 109.082 87.0586C108.984 87.1562 108.877 87.2441 108.76 87.3223C108.584 87.3613 108.457 87.3613 108.379 87.3223C108.301 87.2832 108.232 87.2344 108.174 87.1758C108.115 87.1367 108.037 87.0879 107.939 87.0293C107.861 86.9902 107.734 86.9707 107.559 86.9707C107.52 86.8145 107.471 86.668 107.412 86.5312C107.373 86.3945 107.246 86.3457 107.031 86.3848C107.07 86.2285 107.08 86.1016 107.061 86.0039C107.041 85.8867 107.012 85.7891 106.973 85.7109C106.953 85.6133 106.934 85.5254 106.914 85.4473C106.895 85.3496 106.904 85.2324 106.943 85.0957C106.846 85.0957 106.768 85.0273 106.709 84.8906C106.65 84.7539 106.582 84.6172 106.504 84.4805C106.562 84.1289 106.621 83.7969 106.68 83.4844C106.738 83.1719 106.807 82.8789 106.885 82.6055C106.982 82.332 107.061 82.0586 107.119 81.7852C107.178 81.5117 107.148 81.2285 107.031 80.9355C107.109 80.9941 107.168 80.9844 107.207 80.9062C107.246 80.8086 107.275 80.6914 107.295 80.5547C107.314 80.3984 107.324 80.252 107.324 80.1152C107.324 79.959 107.314 79.832 107.295 79.7344C107.49 79.2266 107.646 78.709 107.764 78.1816C107.9 77.6348 108.018 77.0977 108.115 76.5703C108.232 76.043 108.35 75.5254 108.467 75.0176C108.584 74.5098 108.74 74.041 108.936 73.6113C109.15 73.5723 109.385 73.6016 109.639 73.6992C109.912 73.7773 110.078 73.8848 110.137 74.0215C110.645 73.6309 111.094 73.1621 111.484 72.6152C111.875 72.0488 112.275 71.502 112.686 70.9746C113.096 70.4473 113.545 69.9785 114.033 69.5684C114.541 69.1582 115.176 68.9141 115.937 68.8359C116.328 69.1289 116.758 69.4316 117.227 69.7441C117.715 70.0371 118.115 70.4277 118.428 70.916C118.584 70.9941 118.711 71.082 118.809 71.1797C118.926 71.2578 119.062 71.3457 119.219 71.4434V71.7949C119.453 72.0098 119.639 72.2637 119.775 72.5566C119.932 72.8301 120.068 73.1328 120.186 73.4648C120.303 73.7773 120.42 74.0996 120.537 74.4316C120.654 74.7441 120.791 75.0469 120.947 75.3398C120.908 75.4375 120.889 75.5254 120.889 75.6035C120.889 75.6621 120.898 75.7305 120.918 75.8086C120.957 75.8867 120.986 75.9648 121.006 76.043C121.025 76.1211 121.025 76.2285 121.006 76.3652C120.947 77.2246 120.664 77.918 120.156 78.4453C119.668 78.9727 119.072 79.4121 118.369 79.7637C117.666 80.0957 116.914 80.3789 116.113 80.6133C115.312 80.8477 114.59 81.1016 113.945 81.375C113.945 81.4531 113.975 81.4922 114.033 81.4922C114.111 81.4922 114.141 81.541 114.121 81.6387C114.59 81.9316 114.961 82.166 115.234 82.3418C115.508 82.5176 115.762 82.6641 115.996 82.7812C116.25 82.8984 116.514 83.0059 116.787 83.1035C117.08 83.1816 117.48 83.2793 117.988 83.3965C118.496 83.5137 118.887 83.6113 119.16 83.6895C119.453 83.748 119.717 83.8066 119.951 83.8652C120.186 83.9043 120.42 83.9434 120.654 83.9824C120.908 84.002 121.26 84.0312 121.709 84.0703C121.885 84.2461 122.031 84.4609 122.148 84.7148C122.285 84.9492 122.373 85.1934 122.412 85.4473C122.451 85.6816 122.461 85.916 122.441 86.1504C122.422 86.3652 122.354 86.541 122.236 86.6777C122.256 86.7363 122.295 86.7656 122.354 86.7656C122.432 86.7461 122.51 86.7461 122.588 86.7656C122.471 86.8437 122.373 86.9414 122.295 87.0586C122.217 87.1758 122.139 87.293 122.061 87.4102C121.982 87.5273 121.895 87.625 121.797 87.7031C121.699 87.8008 121.562 87.8594 121.387 87.8789C120.781 88.1133 120.02 88.123 119.102 87.9082C118.184 87.7129 117.021 87.3418 115.615 86.7949C114.912 86.5215 114.336 86.2871 113.887 86.0918C113.457 85.877 113.076 85.6719 112.744 85.4766C112.432 85.2617 112.139 85.0371 111.865 84.8027C111.611 84.5684 111.299 84.2852 110.928 83.9531ZM115.117 73.9043C114.902 74.2168 114.658 74.5 114.385 74.7539C114.131 75.0078 113.877 75.2715 113.623 75.5449C113.389 75.7988 113.174 76.0918 112.979 76.4238C112.783 76.7363 112.646 77.1074 112.568 77.5371C113.252 77.459 113.965 77.2734 114.707 76.9805C115.449 76.668 116.152 76.375 116.816 76.1016C116.738 75.4961 116.523 75.0078 116.172 74.6367C115.84 74.2656 115.488 74.0215 115.117 73.9043ZM128.447 81.668C128.271 81.707 128.145 81.8145 128.066 81.9902C127.988 82.1465 127.91 82.3125 127.832 82.4883C127.773 82.6641 127.705 82.8301 127.627 82.9863C127.568 83.123 127.471 83.1914 127.334 83.1914C127.314 83.3477 127.256 83.4844 127.158 83.6016C127.08 83.7187 127.002 83.8457 126.924 83.9824C126.846 84.0996 126.787 84.2363 126.748 84.3926C126.709 84.5293 126.729 84.6953 126.807 84.8906C126.65 85.0078 126.553 85.1738 126.514 85.3887C126.475 85.6035 126.426 85.8086 126.367 86.0039C126.328 86.1992 126.25 86.3652 126.133 86.502C126.016 86.6387 125.801 86.6973 125.488 86.6777C125.43 86.7559 125.42 86.8047 125.459 86.8242C125.498 86.8437 125.527 86.9121 125.547 87.0293C125.332 86.9902 125.166 87 125.049 87.0586C124.951 87.1367 124.824 87.1855 124.668 87.2051C124.297 87.0879 123.984 86.8828 123.73 86.5898C123.496 86.2969 123.281 85.9746 123.086 85.623C122.91 85.252 122.744 84.8809 122.588 84.5098C122.451 84.1387 122.314 83.8164 122.178 83.543C122.236 83.3281 122.246 83.123 122.207 82.9277C122.168 82.7129 122.1 82.5371 122.002 82.4004C122.959 80.3691 124.004 78.2012 125.137 75.8965C126.27 73.5918 127.344 71.3164 128.359 69.0703C128.809 69.2461 129.248 69.4512 129.678 69.6855C130.127 69.9004 130.527 70.1543 130.879 70.4473C131.25 70.7402 131.562 71.082 131.816 71.4727C132.07 71.8437 132.236 72.2637 132.314 72.7324C132.275 72.8496 132.227 72.8984 132.168 72.8789C132.129 72.8398 132.09 72.8496 132.051 72.9082C132.129 73.0059 132.168 73.0742 132.168 73.1133C132.187 73.1523 132.187 73.1914 132.168 73.2305C132.168 73.2695 132.168 73.3281 132.168 73.4062C132.168 73.4648 132.197 73.5527 132.256 73.6699C132.178 73.6504 132.119 73.6602 132.08 73.6992C132.061 73.7383 132.002 73.7383 131.904 73.6992C131.982 73.9141 132.002 74.0898 131.963 74.2266C131.943 74.3633 131.904 74.4902 131.846 74.6074C131.787 74.7051 131.738 74.8223 131.699 74.959C131.66 75.0762 131.67 75.2324 131.729 75.4277C131.67 75.4277 131.621 75.4473 131.582 75.4863C131.562 75.5059 131.543 75.5352 131.523 75.5742C131.504 75.5937 131.475 75.623 131.436 75.6621C131.416 75.6816 131.377 75.6816 131.318 75.6621C131.377 76.0918 131.396 76.5215 131.377 76.9512C131.357 77.3809 131.338 77.8203 131.318 78.2695C131.318 78.6992 131.328 79.1582 131.348 79.6465C131.367 80.1152 131.436 80.6035 131.553 81.1113C132.256 80.7012 132.812 80.1738 133.223 79.5293C133.652 78.8848 133.994 78.1621 134.248 77.3613C134.521 76.5605 134.727 75.7012 134.863 74.7832C135 73.8652 135.146 72.9277 135.303 71.9707C135.479 71.7949 135.615 71.5801 135.713 71.3262C135.811 71.0723 135.898 70.8086 135.977 70.5352C136.055 70.2422 136.133 69.959 136.211 69.6855C136.289 69.3926 136.387 69.1289 136.504 68.8945C136.797 68.9336 137.041 69.0312 137.236 69.1875C137.451 69.3242 137.646 69.4805 137.822 69.6562C137.998 69.8125 138.184 69.9687 138.379 70.125C138.574 70.2617 138.818 70.3496 139.111 70.3887C139.346 70.7207 139.561 71.043 139.756 71.3555C139.951 71.668 140.078 72 140.137 72.3516C140.039 72.5078 139.961 72.6836 139.902 72.8789C139.863 73.0742 139.814 73.2695 139.756 73.4648C139.697 73.6602 139.619 73.8457 139.521 74.0215C139.424 74.1777 139.287 74.3145 139.111 74.4316C139.053 74.9395 138.975 75.4082 138.877 75.8379C138.799 76.248 138.711 76.6582 138.613 77.0684C138.535 77.4785 138.467 77.9082 138.408 78.3574C138.35 78.7871 138.33 79.2656 138.35 79.793C138.193 80.2422 138.027 80.7207 137.852 81.2285C137.676 81.7363 137.539 82.1953 137.441 82.6055C137.129 82.8594 136.885 83.1621 136.709 83.5137C136.533 83.8652 136.348 84.2168 136.152 84.5684C136.074 84.6465 136.025 84.666 136.006 84.627C135.986 84.5879 135.918 84.5586 135.801 84.5391C135.82 84.6172 135.82 84.6758 135.801 84.7148C135.781 84.7539 135.752 84.793 135.713 84.832C135.693 84.8516 135.674 84.8906 135.654 84.9492C135.654 85.0078 135.674 85.0859 135.713 85.1836C135.439 85.3008 135.195 85.4668 134.98 85.6816C134.766 85.8965 134.531 86.0918 134.277 86.2676C134.043 86.4434 133.75 86.5605 133.398 86.6191C133.066 86.6777 132.627 86.6094 132.08 86.4141C131.279 85.8281 130.566 85.1543 129.941 84.3926C129.336 83.6309 128.838 82.7227 128.447 81.668Z" fill="white"/>
<defs>
<radialGradient id="paint0_angular_0_3" cx="0" cy="0" r="1" gradientUnits="userSpaceOnUse" gradientTransform="translate(225 150) rotate(65.6136) scale(164.694 159.407)">
<stop stop-color="#F23005"/>
<stop offset="0.0001" stop-color="#F23005" stop-opacity="0"/>
<stop offset="0.0002" stop-color="#F46D4E" stop-opacity="0.05"/>
</radialGradient>
<radialGradient id="paint1_angular_0_3" cx="0" cy="0" r="1" gradientUnits="userSpaceOnUse" gradientTransform="translate(225 150) rotate(114.86) scale(165.319 160.011)">
<stop stop-color="#F23005"/>
<stop offset="0.9999" stop-color="#F46D4E" stop-opacity="0.05"/>
<stop offset="1" stop-color="#F23005" stop-opacity="0"/>
</radialGradient>
</defs>
</svg>
