<svg width="150" height="150" viewBox="0 0 150 150" fill="none" xmlns="http://www.w3.org/2000/svg">
<g clip-path="url(#clip0_1_29)">
<path d="M58.0938 93.25C57.4721 93.25 56.876 93.0031 56.4365 92.5635C55.9969 92.124 55.75 91.5279 55.75 90.9062V81.5312C55.75 80.9096 55.9969 80.3135 56.4365 79.874C56.876 79.4344 57.4721 79.1875 58.0938 79.1875H62.7812C63.4029 79.1875 63.999 79.4344 64.4385 79.874C64.8781 80.3135 65.125 80.9096 65.125 81.5312V90.9062C65.125 91.5279 64.8781 92.124 64.4385 92.5635C63.999 93.0031 63.4029 93.25 62.7812 93.25H58.0938ZM72.1562 93.25C71.5346 93.25 70.9385 93.0031 70.499 92.5635C70.0594 92.124 69.8125 91.5279 69.8125 90.9062V72.1562C69.8125 71.5346 70.0594 70.9385 70.499 70.499C70.9385 70.0594 71.5346 69.8125 72.1562 69.8125H76.8438C77.4654 69.8125 78.0615 70.0594 78.501 70.499C78.9406 70.9385 79.1875 71.5346 79.1875 72.1562V90.9062C79.1875 91.5279 78.9406 92.124 78.501 92.5635C78.0615 93.0031 77.4654 93.25 76.8438 93.25H72.1562ZM86.2188 93.25C85.5971 93.25 85.001 93.0031 84.5615 92.5635C84.1219 92.124 83.875 91.5279 83.875 90.9062V62.7812C83.875 62.1596 84.1219 61.5635 84.5615 61.124C85.001 60.6844 85.5971 60.4375 86.2188 60.4375H90.9062C91.5279 60.4375 92.124 60.6844 92.5635 61.124C93.0031 61.5635 93.25 62.1596 93.25 62.7812V90.9062C93.25 91.5279 93.0031 92.124 92.5635 92.5635C92.124 93.0031 91.5279 93.25 90.9062 93.25H86.2188Z" fill="black"/>
<path d="M55.75 37C53.2636 37 50.879 37.9877 49.1209 39.7459C47.3627 41.504 46.375 43.8886 46.375 46.375V102.625C46.375 105.111 47.3627 107.496 49.1209 109.254C50.879 111.012 53.2636 112 55.75 112H93.25C95.7364 112 98.121 111.012 99.8791 109.254C101.637 107.496 102.625 105.111 102.625 102.625V46.375C102.625 43.8886 101.637 41.504 99.8791 39.7459C98.121 37.9877 95.7364 37 93.25 37H55.75ZM55.75 41.6875H93.25C94.4932 41.6875 95.6855 42.1814 96.5646 43.0604C97.4436 43.9395 97.9375 45.1318 97.9375 46.375V102.625C97.9375 103.868 97.4436 105.06 96.5646 105.94C95.6855 106.819 94.4932 107.312 93.25 107.312H55.75C54.5068 107.312 53.3145 106.819 52.4354 105.94C51.5564 105.06 51.0625 103.868 51.0625 102.625V46.375C51.0625 45.1318 51.5564 43.9395 52.4354 43.0604C53.3145 42.1814 54.5068 41.6875 55.75 41.6875V41.6875Z" fill="black"/>
</g>
<rect width="150" height="150" rx="25" fill="url(#paint0_linear_1_29)"/>
<path d="M53.432 123C53.104 122.304 52.78 121.58 52.46 120.828C52.14 120.076 51.836 119.332 51.548 118.596C51.26 117.86 50.992 117.156 50.744 116.484C50.504 115.812 50.296 115.212 50.12 114.684H52.184C52.344 115.164 52.516 115.684 52.7 116.244C52.892 116.796 53.084 117.348 53.276 117.9C53.476 118.452 53.668 118.98 53.852 119.484C54.036 119.988 54.208 120.424 54.368 120.792C54.52 120.424 54.688 119.988 54.872 119.484C55.064 118.98 55.256 118.452 55.448 117.9C55.648 117.348 55.84 116.796 56.024 116.244C56.216 115.684 56.392 115.164 56.552 114.684H58.544C58.36 115.212 58.148 115.812 57.908 116.484C57.668 117.156 57.404 117.86 57.116 118.596C56.828 119.332 56.524 120.076 56.204 120.828C55.884 121.58 55.56 122.304 55.232 123H53.432ZM59.6202 123V114.684H65.2362V116.256H61.4922V117.888H64.8162V119.424H61.4922V121.428H65.5122V123H59.6202ZM72.4775 123C71.9415 122.048 71.3615 121.108 70.7375 120.18C70.1135 119.252 69.4495 118.376 68.7455 117.552V123H66.8975V114.684H68.4215C68.6855 114.948 68.9775 115.272 69.2975 115.656C69.6175 116.04 69.9415 116.452 70.2695 116.892C70.6055 117.324 70.9375 117.776 71.2655 118.248C71.5935 118.712 71.9015 119.16 72.1895 119.592V114.684H74.0495V123H72.4775ZM77.8398 121.476C77.9278 121.484 78.0278 121.492 78.1398 121.5C78.2598 121.5 78.3998 121.5 78.5598 121.5C79.4958 121.5 80.1878 121.264 80.6358 120.792C81.0918 120.32 81.3198 119.668 81.3198 118.836C81.3198 117.964 81.1038 117.304 80.6718 116.856C80.2398 116.408 79.5558 116.184 78.6198 116.184C78.4918 116.184 78.3598 116.188 78.2238 116.196C78.0878 116.196 77.9598 116.204 77.8398 116.22V121.476ZM83.2518 118.836C83.2518 119.556 83.1398 120.184 82.9158 120.72C82.6918 121.256 82.3718 121.7 81.9558 122.052C81.5478 122.404 81.0478 122.668 80.4558 122.844C79.8638 123.02 79.1998 123.108 78.4638 123.108C78.1278 123.108 77.7358 123.092 77.2878 123.06C76.8398 123.036 76.3998 122.98 75.9678 122.892V114.792C76.3998 114.712 76.8478 114.66 77.3118 114.636C77.7838 114.604 78.1878 114.588 78.5238 114.588C79.2358 114.588 79.8798 114.668 80.4558 114.828C81.0398 114.988 81.5398 115.24 81.9558 115.584C82.3718 115.928 82.6918 116.368 82.9158 116.904C83.1398 117.44 83.2518 118.084 83.2518 118.836ZM90.0788 123C89.9908 122.712 89.8908 122.416 89.7788 122.112C89.6748 121.808 89.5708 121.504 89.4668 121.2H86.2268C86.1228 121.504 86.0148 121.808 85.9028 122.112C85.7988 122.416 85.7028 122.712 85.6148 123H83.6708C83.9828 122.104 84.2788 121.276 84.5588 120.516C84.8388 119.756 85.1108 119.04 85.3748 118.368C85.6468 117.696 85.9108 117.06 86.1668 116.46C86.4308 115.852 86.7028 115.26 86.9828 114.684H88.7708C89.0428 115.26 89.3108 115.852 89.5748 116.46C89.8388 117.06 90.1028 117.696 90.3668 118.368C90.6388 119.04 90.9148 119.756 91.1948 120.516C91.4748 121.276 91.7708 122.104 92.0828 123L90.0788 123ZM87.8348 116.568C87.7948 116.688 87.7348 116.852 87.6548 117.06C87.5748 117.268 87.4828 117.508 87.3788 117.78C87.2748 118.052 87.1588 118.352 87.0308 118.68C86.9108 119.008 86.7868 119.352 86.6588 119.712L89.0228 119.712C88.8948 119.352 88.7708 119.008 88.6508 118.68C88.5308 118.352 88.4148 118.052 88.3028 117.78C88.1988 117.508 88.1068 117.268 88.0268 117.06C87.9468 116.852 87.8828 116.688 87.8348 116.568ZM95.6499 121.572C95.9139 121.572 96.1299 121.552 96.2979 121.512C96.4739 121.464 96.6139 121.404 96.7179 121.332C96.8219 121.252 96.8939 121.16 96.9339 121.056C96.9739 120.952 96.9939 120.836 96.9939 120.708C96.9939 120.436 96.8659 120.212 96.6099 120.036C96.3539 119.852 95.9139 119.656 95.2899 119.448C95.0179 119.352 94.7459 119.244 94.4739 119.124C94.2019 118.996 93.9579 118.84 93.7419 118.656C93.5259 118.464 93.3499 118.236 93.2139 117.972C93.0779 117.7 93.0099 117.372 93.0099 116.988C93.0099 116.604 93.0819 116.26 93.2259 115.956C93.3699 115.644 93.5739 115.38 93.8379 115.164C94.1019 114.948 94.4219 114.784 94.7979 114.672C95.1739 114.552 95.5979 114.492 96.0699 114.492C96.6299 114.492 97.1139 114.552 97.5219 114.672C97.9299 114.792 98.2659 114.924 98.5299 115.068L97.9899 116.544C97.7579 116.424 97.4979 116.32 97.2099 116.232C96.9299 116.136 96.5899 116.088 96.1899 116.088C95.7419 116.088 95.4179 116.152 95.2179 116.28C95.0259 116.4 94.9299 116.588 94.9299 116.844C94.9299 116.996 94.9659 117.124 95.0379 117.228C95.1099 117.332 95.2099 117.428 95.3379 117.516C95.4739 117.596 95.6259 117.672 95.7939 117.744C95.9699 117.808 96.1619 117.876 96.3699 117.948C96.8019 118.108 97.1779 118.268 97.4979 118.428C97.8179 118.58 98.0819 118.76 98.2899 118.968C98.5059 119.176 98.6659 119.42 98.7699 119.7C98.8739 119.98 98.9259 120.32 98.9259 120.72C98.9259 121.496 98.6539 122.1 98.1099 122.532C97.5659 122.956 96.7459 123.168 95.6499 123.168C95.2819 123.168 94.9499 123.144 94.6539 123.096C94.3579 123.056 94.0939 123.004 93.8619 122.94C93.6379 122.876 93.4419 122.808 93.2739 122.736C93.1139 122.664 92.9779 122.596 92.8659 122.532L93.3939 121.044C93.6419 121.18 93.9459 121.304 94.3059 121.416C94.6739 121.52 95.1219 121.572 95.6499 121.572Z" fill="url(#paint1_linear_1_29)" fill-opacity="0.75"/>
<path d="M56.868 34C56.7 33.728 56.5 33.436 56.268 33.124C56.044 32.804 55.796 32.488 55.524 32.176C55.26 31.856 54.984 31.552 54.696 31.264C54.408 30.968 54.12 30.708 53.832 30.484V34H51.96V25.684H53.832V28.828C54.32 28.316 54.808 27.784 55.296 27.232C55.792 26.672 56.252 26.156 56.676 25.684H58.896C58.328 26.356 57.756 27.004 57.18 27.628C56.612 28.252 56.012 28.88 55.38 29.512C56.044 30.064 56.684 30.72 57.3 31.48C57.924 32.24 58.52 33.08 59.088 34H56.868ZM63.4151 34.168C62.8311 34.168 62.3271 34.088 61.9031 33.928C61.4791 33.76 61.1271 33.532 60.8471 33.244C60.5751 32.948 60.3711 32.6 60.2351 32.2C60.1071 31.792 60.0431 31.344 60.0431 30.856V25.684H61.9151V30.7C61.9151 31.036 61.9511 31.324 62.0231 31.564C62.1031 31.796 62.2071 31.988 62.3351 32.14C62.4711 32.284 62.6311 32.388 62.8151 32.452C63.0071 32.516 63.2151 32.548 63.4391 32.548C63.8951 32.548 64.2631 32.408 64.5431 32.128C64.8311 31.848 64.9751 31.372 64.9751 30.7V25.684H66.8471V30.856C66.8471 31.344 66.7791 31.792 66.6431 32.2C66.5071 32.608 66.2991 32.96 66.0191 33.256C65.7391 33.544 65.3831 33.768 64.9511 33.928C64.5191 34.088 64.0071 34.168 63.4151 34.168ZM74.2275 34C73.6915 33.048 73.1115 32.108 72.4875 31.18C71.8635 30.252 71.1995 29.376 70.4955 28.552V34H68.6475V25.684H70.1715C70.4355 25.948 70.7275 26.272 71.0475 26.656C71.3675 27.04 71.6915 27.452 72.0195 27.892C72.3555 28.324 72.6875 28.776 73.0155 29.248C73.3435 29.712 73.6515 30.16 73.9395 30.592V25.684H75.7995V34H74.2275ZM83.8858 25.684V27.28H81.3778V34H79.5058V27.28H76.9978V25.684L83.8858 25.684ZM91.0741 26.98C90.8181 27.244 90.5141 27.588 90.1621 28.012C89.8101 28.428 89.4461 28.884 89.0701 29.38C88.6941 29.876 88.3221 30.388 87.9541 30.916C87.5861 31.444 87.2581 31.948 86.9701 32.428H91.2061V34H84.6661V32.884C84.8901 32.476 85.1621 32.024 85.4821 31.528C85.8101 31.024 86.1501 30.52 86.5021 30.016C86.8541 29.504 87.2101 29.012 87.5701 28.54C87.9381 28.06 88.2781 27.632 88.5901 27.256L84.8581 27.256V25.684H91.0741V26.98ZM92.5303 34V25.684H98.1463V27.256H94.4023V28.888H97.7263V30.424H94.4023V32.428H98.4223V34H92.5303Z" fill="url(#paint2_linear_1_29)" fill-opacity="0.75"/>
<defs>
<linearGradient id="paint0_linear_1_29" x1="75" y1="0" x2="75" y2="150" gradientUnits="userSpaceOnUse">
<stop stop-color="#F7E4F9"/>
<stop offset="1" stop-color="#D15DDD" stop-opacity="0"/>
</linearGradient>
<linearGradient id="paint1_linear_1_29" x1="57.5" y1="112" x2="98" y2="138.5" gradientUnits="userSpaceOnUse">
<stop stop-color="#F7E4F9"/>
<stop offset="1" stop-color="#F7E4F9" stop-opacity="0"/>
</linearGradient>
<linearGradient id="paint2_linear_1_29" x1="83" y1="13.5" x2="37" y2="50" gradientUnits="userSpaceOnUse">
<stop stop-color="#F7E4F9"/>
<stop offset="1" stop-color="#F7E4F9" stop-opacity="0"/>
</linearGradient>
<clipPath id="clip0_1_29">
<rect width="75" height="75" fill="white" transform="translate(37 37)"/>
</clipPath>
</defs>
</svg>
